<svg xmlns="http://www.w3.org/2000/svg" id="mermaid-1550828653860" width="100%" height="100%" viewBox="-50 -10 1050 544" style="max-width:1050px"><style>#mermaid-1550828653860 .actor{stroke:#ccf;fill:#ececff}#mermaid-1550828653860 text.actor{fill:#000;stroke:none}#mermaid-1550828653860 .actor-line{stroke:gray}#mermaid-1550828653860 .messageLine0,#mermaid-1550828653860 .messageLine1{stroke-width:1.5;stroke-dasharray:&apos;2 2&apos;;stroke:#333}#mermaid-1550828653860 #arrowhead{fill:#333}#mermaid-1550828653860 #crosshead path{fill:#333!important;stroke:#333!important}#mermaid-1550828653860 .messageText{fill:#333;stroke:none}#mermaid-1550828653860 .note{stroke:#aa3;fill:#fff5ad}#mermaid-1550828653860 .noteText{fill:#000;stroke:none;font-family:&apos;trebuchet ms&apos;,verdana,arial;font-size:14px}#mermaid-1550828653860 .activation0,#mermaid-1550828653860 .activation1{fill:#f4f4f4;stroke:#666}</style><style>#mermaid-1550828653860{color:#000;font:400 16px &quot;Times New Roman&quot;}</style><g><line id="actor0" x1="75" x2="75" y1="5" y2="533" stroke="#999" stroke-width=".5" class="actor-line"/><rect width="150" height="65" x="0" y="0" fill="#eaeaea" stroke="#666" class="actor" rx="3" ry="3"/><text x="75" y="32.5" alignment-baseline="central" class="actor" dominant-baseline="central" style="text-anchor:middle;font-size:14px;font-family:Open-Sans,sans-serif"><tspan x="75" dy="0">ServiceNode</tspan></text></g><g><line id="actor1" x1="275" x2="275" y1="5" y2="533" stroke="#999" stroke-width=".5" class="actor-line"/><rect width="150" height="65" x="200" y="0" fill="#eaeaea" stroke="#666" class="actor" rx="3" ry="3"/><text x="275" y="32.5" alignment-baseline="central" class="actor" dominant-baseline="central" style="text-anchor:middle;font-size:14px;font-family:Open-Sans,sans-serif"><tspan x="275" dy="0">NodePeer</tspan></text></g><g><line id="actor2" x1="475" x2="475" y1="5" y2="533" stroke="#999" stroke-width=".5" class="actor-line"/><rect width="150" height="65" x="400" y="0" fill="#eaeaea" stroke="#666" class="actor" rx="3" ry="3"/><text x="475" y="32.5" alignment-baseline="central" class="actor" dominant-baseline="central" style="text-anchor:middle;font-size:14px;font-family:Open-Sans,sans-serif"><tspan x="475" dy="0">Channel</tspan></text></g><g><line id="actor3" x1="675" x2="675" y1="5" y2="533" stroke="#999" stroke-width=".5" class="actor-line"/><rect width="150" height="65" x="600" y="0" fill="#eaeaea" stroke="#666" class="actor" rx="3" ry="3"/><text x="675" y="32.5" alignment-baseline="central" class="actor" dominant-baseline="central" style="text-anchor:middle;font-size:14px;font-family:Open-Sans,sans-serif"><tspan x="675" dy="0">ImplPeer</tspan></text></g><g><line id="actor4" x1="875" x2="875" y1="5" y2="533" stroke="#999" stroke-width=".5" class="actor-line"/><rect width="150" height="65" x="800" y="0" fill="#eaeaea" stroke="#666" class="actor" rx="3" ry="3"/><text x="875" y="32.5" alignment-baseline="central" class="actor" dominant-baseline="central" style="text-anchor:middle;font-size:14px;font-family:Open-Sans,sans-serif"><tspan x="875" dy="0">ServiceImpl</tspan></text></g><defs><marker id="arrowhead" markerHeight="4" markerWidth="6" orient="auto" refX="5" refY="2"><path d="M 0,0 V 4 L6,2 Z"/></marker></defs><defs><marker id="crosshead" markerHeight="8" markerWidth="15" orient="auto" refX="16" refY="4"><path fill="#000" stroke="#000" stroke-width="1" d="M 9,2 V 6 L16,4 Z" style="stroke-dasharray:0,0"/><path fill="none" stroke="#000" stroke-width="1" d="M 0,1 L 6,7 M 6,1 L 0,7" style="stroke-dasharray:0,0"/></marker></defs><g><text x="775" y="93" class="messageText" style="text-anchor:middle">create peer &apos;uuid1&apos;</text><line x1="875" x2="675" y1="100" y2="100" stroke="#000" stroke-width="2" marker-end="url(#crosshead)" class="messageLine0" style="fill:none"/></g><g><rect width="150" height="36" x="600" y="110" fill="#EDF2AE" stroke="#666" class="note" rx="0" ry="0"/><text x="596" y="134" fill="#000" class="noteText"><tspan x="616" fill="#000">Peer created</tspan></text></g><g><text x="575" y="174" class="messageText" style="text-anchor:middle">connect</text><line x1="675" x2="475" y1="181" y2="181" stroke="#000" stroke-width="2" marker-end="url(#arrowhead)" class="messageLine0" style="fill:none"/></g><g><rect width="10" height="219" x="470" y="183" fill="#EDF2AE" stroke="#666" class="activation0" rx="0" ry="0"/></g><g><text x="775" y="209" class="messageText" style="text-anchor:middle">setHandlers</text><line x1="875" x2="675" y1="216" y2="216" stroke="#000" stroke-width="2" marker-end="url(#crosshead)" class="messageLine0" style="fill:none"/></g><g><text x="175" y="244" class="messageText" style="text-anchor:middle">create peer &apos;uuid1&apos;</text><line x1="75" x2="275" y1="251" y2="251" stroke="#000" stroke-width="2" marker-end="url(#crosshead)" class="messageLine0" style="fill:none"/></g><g><rect width="150" height="36" x="200" y="261" fill="#EDF2AE" stroke="#666" class="note" rx="0" ry="0"/><text x="196" y="285" fill="#000" class="noteText"><tspan x="216" fill="#000">Peer created</tspan></text></g><g><text x="372.5" y="325" class="messageText" style="text-anchor:middle">connect</text><line x1="275" x2="470" y1="332" y2="332" stroke="#000" stroke-width="2" marker-end="url(#arrowhead)" class="messageLine0" style="fill:none"/></g><g><rect width="10" height="33" x="475" y="334" fill="#EDF2AE" stroke="#666" class="activation1" rx="0" ry="0"/></g><g><text x="372.5" y="360" class="messageText" style="text-anchor:middle">connected</text><line x1="470" x2="275" y1="367" y2="367" stroke="#000" stroke-width="2" marker-end="url(#arrowhead)" class="messageLine1" style="stroke-dasharray:3,3;fill:none"/></g><g><text x="577.5" y="395" class="messageText" style="text-anchor:middle">connected</text><line x1="480" x2="675" y1="402" y2="402" stroke="#000" stroke-width="2" marker-end="url(#arrowhead)" class="messageLine1" style="stroke-dasharray:3,3;fill:none"/></g><g><rect width="450" height="36" x="250" y="412" fill="#EDF2AE" stroke="#666" class="note" rx="0" ry="0"/><text x="246" y="436" fill="#000" class="noteText"><tspan x="266" fill="#000">1-1 link between the 2 peers</tspan></text></g><g><rect width="150" height="65" x="0" y="468" fill="#eaeaea" stroke="#666" class="actor" rx="3" ry="3"/><text x="75" y="500.5" alignment-baseline="central" class="actor" dominant-baseline="central" style="text-anchor:middle;font-size:14px;font-family:Open-Sans,sans-serif"><tspan x="75" dy="0">ServiceNode</tspan></text></g><g><rect width="150" height="65" x="200" y="468" fill="#eaeaea" stroke="#666" class="actor" rx="3" ry="3"/><text x="275" y="500.5" alignment-baseline="central" class="actor" dominant-baseline="central" style="text-anchor:middle;font-size:14px;font-family:Open-Sans,sans-serif"><tspan x="275" dy="0">NodePeer</tspan></text></g><g><rect width="150" height="65" x="400" y="468" fill="#eaeaea" stroke="#666" class="actor" rx="3" ry="3"/><text x="475" y="500.5" alignment-baseline="central" class="actor" dominant-baseline="central" style="text-anchor:middle;font-size:14px;font-family:Open-Sans,sans-serif"><tspan x="475" dy="0">Channel</tspan></text></g><g><rect width="150" height="65" x="600" y="468" fill="#eaeaea" stroke="#666" class="actor" rx="3" ry="3"/><text x="675" y="500.5" alignment-baseline="central" class="actor" dominant-baseline="central" style="text-anchor:middle;font-size:14px;font-family:Open-Sans,sans-serif"><tspan x="675" dy="0">ImplPeer</tspan></text></g><g><rect width="150" height="65" x="800" y="468" fill="#eaeaea" stroke="#666" class="actor" rx="3" ry="3"/><text x="875" y="500.5" alignment-baseline="central" class="actor" dominant-baseline="central" style="text-anchor:middle;font-size:14px;font-family:Open-Sans,sans-serif"><tspan x="875" dy="0">ServiceImpl</tspan></text></g></svg>