<svg xmlns="http://www.w3.org/2000/svg" id="mermaid-1550828654049" width="100%" height="100%" viewBox="-50 -10 1050 452" style="max-width:1050px"><style>#mermaid-1550828654049 .actor{stroke:#ccf;fill:#ececff}#mermaid-1550828654049 text.actor{fill:#000;stroke:none}#mermaid-1550828654049 .actor-line{stroke:gray}#mermaid-1550828654049 .messageLine0,#mermaid-1550828654049 .messageLine1{stroke-width:1.5;stroke-dasharray:&apos;2 2&apos;;stroke:#333}#mermaid-1550828654049 #arrowhead{fill:#333}#mermaid-1550828654049 #crosshead path{fill:#333!important;stroke:#333!important}#mermaid-1550828654049 .messageText{fill:#333;stroke:none}#mermaid-1550828654049 .note{stroke:#aa3;fill:#fff5ad}#mermaid-1550828654049 .noteText{fill:#000;stroke:none;font-family:&apos;trebuchet ms&apos;,verdana,arial;font-size:14px}#mermaid-1550828654049 .activation0{fill:#f4f4f4;stroke:#666}</style><style>#mermaid-1550828654049{color:#000;font:400 16px &quot;Times New Roman&quot;}</style><g><line id="actor5" x1="75" x2="75" y1="5" y2="441" stroke="#999" stroke-width=".5" class="actor-line"/><rect width="150" height="65" x="0" y="0" fill="#eaeaea" stroke="#666" class="actor" rx="3" ry="3"/><text x="75" y="32.5" alignment-baseline="central" class="actor" dominant-baseline="central" style="text-anchor:middle;font-size:14px;font-family:Open-Sans,sans-serif"><tspan x="75" dy="0">ServiceNode</tspan></text></g><g><line id="actor6" x1="275" x2="275" y1="5" y2="441" stroke="#999" stroke-width=".5" class="actor-line"/><rect width="150" height="65" x="200" y="0" fill="#eaeaea" stroke="#666" class="actor" rx="3" ry="3"/><text x="275" y="32.5" alignment-baseline="central" class="actor" dominant-baseline="central" style="text-anchor:middle;font-size:14px;font-family:Open-Sans,sans-serif"><tspan x="275" dy="0">NodePeer</tspan></text></g><g><line id="actor7" x1="475" x2="475" y1="5" y2="441" stroke="#999" stroke-width=".5" class="actor-line"/><rect width="150" height="65" x="400" y="0" fill="#eaeaea" stroke="#666" class="actor" rx="3" ry="3"/><text x="475" y="32.5" alignment-baseline="central" class="actor" dominant-baseline="central" style="text-anchor:middle;font-size:14px;font-family:Open-Sans,sans-serif"><tspan x="475" dy="0">Channel</tspan></text></g><g><line id="actor8" x1="675" x2="675" y1="5" y2="441" stroke="#999" stroke-width=".5" class="actor-line"/><rect width="150" height="65" x="600" y="0" fill="#eaeaea" stroke="#666" class="actor" rx="3" ry="3"/><text x="675" y="32.5" alignment-baseline="central" class="actor" dominant-baseline="central" style="text-anchor:middle;font-size:14px;font-family:Open-Sans,sans-serif"><tspan x="675" dy="0">ImplPeer</tspan></text></g><g><line id="actor9" x1="875" x2="875" y1="5" y2="441" stroke="#999" stroke-width=".5" class="actor-line"/><rect width="150" height="65" x="800" y="0" fill="#eaeaea" stroke="#666" class="actor" rx="3" ry="3"/><text x="875" y="32.5" alignment-baseline="central" class="actor" dominant-baseline="central" style="text-anchor:middle;font-size:14px;font-family:Open-Sans,sans-serif"><tspan x="875" dy="0">ServiceImpl</tspan></text></g><defs><marker id="arrowhead" markerHeight="4" markerWidth="6" orient="auto" refX="5" refY="2"><path d="M 0,0 V 4 L6,2 Z"/></marker></defs><defs><marker id="crosshead" markerHeight="8" markerWidth="15" orient="auto" refX="16" refY="4"><path fill="#000" stroke="#000" stroke-width="1" d="M 9,2 V 6 L16,4 Z" style="stroke-dasharray:0,0"/><path fill="none" stroke="#000" stroke-width="1" d="M 0,1 L 6,7 M 6,1 L 0,7" style="stroke-dasharray:0,0"/></marker></defs><g><text x="775" y="93" class="messageText" style="text-anchor:middle">setHandler: &apos;getName&apos;</text><line x1="875" x2="675" y1="100" y2="100" stroke="#000" stroke-width="2" marker-end="url(#crosshead)" class="messageLine0" style="fill:none"/></g><g><rect width="450" height="36" x="250" y="110" fill="#EDF2AE" stroke="#666" class="note" rx="0" ry="0"/><text x="246" y="134" fill="#000" class="noteText"><tspan x="266" fill="#000">assumption: 1-1 link between the 2 peers</tspan></text></g><g><text x="175" y="174" class="messageText" style="text-anchor:middle">service.getName(someParams)</text><line x1="75" x2="275" y1="181" y2="181" stroke="#000" stroke-width="2" marker-end="url(#arrowhead)" class="messageLine0" style="fill:none"/></g><g><rect width="10" height="173" x="270" y="183" fill="#EDF2AE" stroke="#666" class="activation0" rx="0" ry="0"/></g><g><text x="377.5" y="209" class="messageText" style="text-anchor:middle">peer.request(&apos;getName&apos;, serialize(someParams))</text><line x1="280" x2="475" y1="216" y2="216" stroke="#000" stroke-width="2" marker-end="url(#arrowhead)" class="messageLine0" style="fill:none"/></g><g><rect width="10" height="103" x="470" y="218" fill="#EDF2AE" stroke="#666" class="activation0" rx="0" ry="0"/></g><g><text x="577.5" y="244" class="messageText" style="text-anchor:middle">unserialize then call handler for &apos;getName&apos;</text><line x1="480" x2="675" y1="251" y2="251" stroke="#000" stroke-width="2" marker-end="url(#arrowhead)" class="messageLine0" style="fill:none"/></g><g><rect width="10" height="33" x="670" y="253" fill="#EDF2AE" stroke="#666" class="activation0" rx="0" ry="0"/></g><g><text x="575" y="279" class="messageText" style="text-anchor:middle">serialize</text><line x1="670" x2="480" y1="286" y2="286" stroke="#000" stroke-width="2" marker-end="url(#arrowhead)" class="messageLine1" style="stroke-dasharray:3,3;fill:none"/></g><g><text x="375" y="314" class="messageText" style="text-anchor:middle">unserialize</text><line x1="470" x2="280" y1="321" y2="321" stroke="#000" stroke-width="2" marker-end="url(#arrowhead)" class="messageLine1" style="stroke-dasharray:3,3;fill:none"/></g><g><text x="172.5" y="349" class="messageText" style="text-anchor:middle">result: &apos;name&apos;</text><line x1="270" x2="75" y1="356" y2="356" stroke="#000" stroke-width="2" marker-end="url(#arrowhead)" class="messageLine1" style="stroke-dasharray:3,3;fill:none"/></g><g><rect width="150" height="65" x="0" y="376" fill="#eaeaea" stroke="#666" class="actor" rx="3" ry="3"/><text x="75" y="408.5" alignment-baseline="central" class="actor" dominant-baseline="central" style="text-anchor:middle;font-size:14px;font-family:Open-Sans,sans-serif"><tspan x="75" dy="0">ServiceNode</tspan></text></g><g><rect width="150" height="65" x="200" y="376" fill="#eaeaea" stroke="#666" class="actor" rx="3" ry="3"/><text x="275" y="408.5" alignment-baseline="central" class="actor" dominant-baseline="central" style="text-anchor:middle;font-size:14px;font-family:Open-Sans,sans-serif"><tspan x="275" dy="0">NodePeer</tspan></text></g><g><rect width="150" height="65" x="400" y="376" fill="#eaeaea" stroke="#666" class="actor" rx="3" ry="3"/><text x="475" y="408.5" alignment-baseline="central" class="actor" dominant-baseline="central" style="text-anchor:middle;font-size:14px;font-family:Open-Sans,sans-serif"><tspan x="475" dy="0">Channel</tspan></text></g><g><rect width="150" height="65" x="600" y="376" fill="#eaeaea" stroke="#666" class="actor" rx="3" ry="3"/><text x="675" y="408.5" alignment-baseline="central" class="actor" dominant-baseline="central" style="text-anchor:middle;font-size:14px;font-family:Open-Sans,sans-serif"><tspan x="675" dy="0">ImplPeer</tspan></text></g><g><rect width="150" height="65" x="800" y="376" fill="#eaeaea" stroke="#666" class="actor" rx="3" ry="3"/><text x="875" y="408.5" alignment-baseline="central" class="actor" dominant-baseline="central" style="text-anchor:middle;font-size:14px;font-family:Open-Sans,sans-serif"><tspan x="875" dy="0">ServiceImpl</tspan></text></g></svg>